<?xml version="1.0" standalone="no"?>
<!DOCTYPE svg PUBLIC "-//W3C//DTD SVG 20010904//EN"
 "http://www.w3.org/TR/2001/REC-SVG-20010904/DTD/svg10.dtd">
<svg version="1.0" xmlns="http://www.w3.org/2000/svg"
 width="300.000000pt" height="300.000000pt" viewBox="0 0 300.000000 300.000000"
 preserveAspectRatio="xMidYMid meet">
<metadata>
Created by potrace 1.14, written by Peter Selinger 2001-2017
</metadata>
<g transform="translate(0.000000,300.000000) scale(0.100000,-0.100000)"
fill="#000000" stroke="none">
<path d="M263 2174 c-43 -22 -65 -59 -65 -107 1 -54 25 -84 105 -132 76 -46
95 -73 69 -105 -19 -24 -85 -30 -120 -11 -32 17 -48 13 -60 -14 -7 -14 -12
-27 -12 -29 0 -11 90 -37 130 -38 93 0 150 43 158 120 5 60 -19 92 -112 147
-128 75 -77 145 72 100 20 -7 22 -4 22 28 0 29 -4 37 -27 44 -47 16 -126 14
-160 -3z"/>
<path d="M732 2179 c-46 -14 -115 -85 -130 -135 -44 -150 33 -283 176 -302
174 -24 293 113 251 290 -28 120 -161 186 -297 147z m154 -78 c84 -51 85 -220
2 -275 -23 -15 -57 -20 -105 -17 -36 2 -91 58 -100 99 -10 52 -5 109 13 143
33 64 127 89 190 50z"/>
<path d="M1182 1967 l3 -222 118 0 117 0 0 35 0 35 -77 0 -78 0 -1 185 -1 185
-42 2 -41 2 2 -222z"/>
<path d="M1550 1966 l0 -222 122 1 122 0 3 33 c3 35 12 33 -119 34 l-48 0 0
58 c0 66 1 67 83 65 31 -1 57 2 58 7 8 62 6 63 -57 64 -32 1 -65 2 -72 3 -9 1
-12 16 -10 54 l3 52 69 3 c38 1 71 3 73 5 1 2 6 17 9 34 l6 30 -121 0 -121 0
0 -221z"/>
<path d="M1947 2176 c-2 -10 -1 -375 2 -417 1 -11 11 -15 39 -15 l37 1 5 152
5 152 116 -152 c115 -151 116 -152 155 -152 l39 1 0 219 0 220 -30 1 c-53 1
-53 3 -51 -152 0 -79 -1 -144 -4 -144 -3 1 -56 68 -119 150 -113 149 -114 150
-152 148 -21 -1 -40 -6 -42 -12z"/>
<path d="M2470 2153 c0 -26 4 -33 20 -34 11 0 39 -2 63 -2 l42 -2 2 -125 c1
-69 2 -152 2 -186 l1 -61 40 1 40 1 0 186 0 186 56 1 c61 0 68 4 78 43 l6 26
-175 0 -175 0 0 -34z"/>
<path d="M878 1552 c-9 -42 -2 -206 10 -210 14 -4 18 213 3 222 -5 3 -10 -2
-13 -12z"/>
<path d="M1388 1562 c-13 -2 -15 -22 -15 -112 l1 -110 54 0 c38 0 52 4 50 13
-3 6 -20 12 -39 12 -32 0 -34 2 -37 38 -3 38 2 43 51 39 9 -1 17 5 17 14 0 13
-8 15 -35 12 -35 -4 -35 -4 -35 34 0 38 0 38 40 38 22 0 40 5 40 10 0 6 -3 10
-7 11 -31 3 -72 4 -85 1z"/>
<path d="M1630 1452 c0 -86 3 -113 13 -109 7 2 12 20 11 45 0 58 27 57 62 -3
14 -25 32 -45 40 -45 16 0 8 21 -28 72 -19 27 -19 27 2 48 11 11 20 29 20 40
0 24 -33 60 -57 61 -10 0 -28 2 -40 3 -23 3 -23 1 -23 -112z m82 63 c13 -30
-3 -55 -36 -55 -19 0 -22 6 -21 40 0 35 3 40 23 40 14 0 27 -9 34 -25z"/>
<path d="M1955 1562 c-25 -5 -44 -31 -45 -60 0 -15 15 -33 49 -57 27 -20 48
-41 47 -48 -4 -30 -18 -38 -56 -32 -41 7 -64 -9 -27 -19 66 -17 107 3 107 54
0 23 -9 35 -44 59 -24 17 -46 37 -49 45 -9 22 19 39 53 32 22 -4 30 -2 30 8 0
15 -34 24 -65 18z"/>
<path d="M2357 1562 c-27 -5 -9 -22 23 -22 l28 0 0 -96 c1 -53 3 -99 6 -102
14 -13 18 13 19 102 l1 96 33 0 c18 0 33 5 33 10 0 6 -3 10 -7 11 -23 3 -122
4 -136 1z"/>
<path d="M2630 1565 c0 -8 49 -96 61 -111 5 -6 10 -34 10 -63 1 -36 6 -51 15
-51 10 0 14 14 14 47 0 34 9 63 35 110 25 45 31 63 20 63 -7 0 -26 -23 -41
-51 l-28 -50 -23 38 c-13 21 -23 41 -23 45 0 4 -9 12 -20 18 -11 6 -20 8 -20
5z"/>
<path d="M206 1468 c2 -82 5 -94 24 -110 35 -28 94 -24 119 8 17 22 21 41 21
110 0 64 -3 84 -13 84 -11 0 -14 -21 -14 -87 0 -93 -10 -113 -59 -113 -38 0
-54 36 -54 122 0 57 -3 78 -13 78 -10 0 -12 -22 -11 -92z"/>
<path d="M530 1449 c0 -84 3 -110 13 -106 8 2 12 29 12 85 0 45 2 82 5 82 3
-1 33 -39 68 -85 34 -47 68 -85 75 -85 9 0 12 29 12 110 0 81 -3 110 -12 110
-10 0 -13 -24 -13 -87 l0 -86 -65 86 c-36 48 -72 87 -80 87 -12 0 -15 -20 -15
-111z"/>
<path d="M1067 1493 c14 -38 32 -87 41 -111 9 -23 21 -41 26 -39 12 4 99 207
92 214 -11 11 -25 -11 -57 -89 l-33 -81 -13 29 c-7 16 -22 55 -34 87 -11 32
-27 57 -34 57 -11 0 -8 -16 12 -67z"/>
<path d="M2180 1450 c0 -84 3 -110 13 -110 10 0 13 27 14 110 0 86 -3 110 -13
110 -11 0 -14 -24 -14 -110z"/>
<path d="M210 1153 c0 -10 2577 -10 2586 0 4 4 -576 7 -1289 7 -714 0 -1297
-3 -1297 -7z"/>
<path d="M588 959 c-28 -16 -21 -46 16 -74 42 -32 39 -59 -6 -53 -17 3 -27 0
-25 -6 6 -18 62 -19 76 -2 18 21 6 63 -19 71 -29 9 -46 43 -25 51 8 3 22 4 30
0 9 -3 15 0 15 9 0 17 -36 20 -62 4z"/>
<path d="M736 948 c-53 -49 -25 -138 45 -138 71 0 105 85 54 135 -30 31 -66
32 -99 3z m74 -8 c45 -24 26 -110 -25 -110 -53 0 -76 74 -33 104 26 19 33 19
58 6z"/>
<path d="M924 963 c-14 -5 -9 -120 6 -138 17 -21 66 -19 88 3 13 13 18 32 16
72 -2 69 -2 70 -13 70 -5 0 -8 -22 -7 -50 2 -67 -8 -90 -38 -90 -28 0 -34 14
-38 91 -2 27 -7 44 -14 42z"/>
<path d="M1088 959 c-9 -6 -4 -9 15 -9 27 0 27 0 27 -70 0 -40 4 -70 10 -70 6
0 10 30 10 70 0 68 1 70 26 70 14 0 23 4 19 10 -7 12 -88 11 -107 -1z"/>
<path d="M1249 928 c-5 -60 1 -118 12 -118 5 0 9 16 9 35 0 34 1 35 40 35 39
0 40 -1 40 -35 0 -19 5 -35 10 -35 6 0 10 33 10 80 0 47 -4 80 -10 80 -5 0
-10 -16 -10 -35 0 -34 -1 -35 -40 -35 -39 0 -40 1 -40 35 0 50 -17 44 -21 -7z"/>
<path d="M1471 949 c-5 -13 -19 -48 -30 -78 -12 -29 -20 -56 -17 -58 8 -8 26
7 26 23 0 24 67 19 75 -6 6 -19 25 -28 25 -12 0 13 -51 136 -61 146 -5 6 -12
-1 -18 -15z m22 -77 c-21 -5 -25 2 -17 34 l7 29 13 -30 c10 -25 10 -31 -3 -33z"/>
<path d="M1601 889 c0 -57 3 -79 11 -77 7 3 12 25 12 56 -1 41 2 49 12 41 7
-6 16 -19 19 -30 9 -29 32 -23 52 14 l18 32 3 -57 c5 -87 22 -69 22 22 0 44
-4 80 -9 80 -4 0 -21 -19 -37 -41 -25 -36 -30 -39 -39 -24 -19 33 -47 65 -55
65 -5 0 -9 -36 -9 -81z"/>
<path d="M1818 962 c-2 -4 -3 -38 -3 -76 0 -49 4 -71 13 -74 10 -3 13 4 10 24
-2 22 2 29 17 32 33 6 53 30 47 57 -2 14 -9 28 -15 32 -15 9 -66 13 -69 5z
m60 -46 c-4 -31 -38 -34 -38 -3 0 29 7 37 27 30 8 -3 13 -15 11 -27z"/>
<path d="M1950 960 c-12 -8 -9 -10 13 -10 27 0 27 0 27 -70 0 -40 4 -70 10
-70 6 0 10 30 10 70 0 68 1 70 25 70 14 0 25 5 25 10 0 13 -90 13 -110 0z"/>
<path d="M2115 945 c-50 -49 -15 -135 54 -135 45 0 82 44 74 90 -10 65 -83 91
-128 45z m89 -17 c9 -12 16 -32 16 -45 0 -50 -67 -72 -95 -30 -39 60 38 134
79 75z"/>
<path d="M2300 890 c0 -47 4 -80 10 -80 10 0 13 20 11 80 l-2 35 23 -26 c13
-14 35 -41 49 -60 15 -18 29 -32 33 -29 5 6 10 89 7 138 -2 45 -20 20 -23 -33
l-3 -56 -43 56 c-24 30 -47 55 -53 55 -5 0 -9 -36 -9 -80z"/>
</g>
</svg>
