<svg version="1" xmlns="http://www.w3.org/2000/svg" width="1170.667" height="1170.667" viewBox="0 0 878.000000 878.000000"><path d="M426.8 3.5c-.2.1-5 .6-10.8.9-11.3.8-16.5 1.3-21.4 2-1.7.2-8.3 1.2-14.6 2.1-13 1.9-28.7 5.1-43.5 9-10.8 2.8-38 11.7-43.2 14-1.7.8-3.4 1.5-3.8 1.5-.4 0-2.3.7-4.3 1.6-2.1.9-6.4 2.8-9.7 4.2-14.1 6.2-41 20.4-53 28.1-27.6 17.6-44.6 31.1-66.6 53.1-23.8 23.7-40 44-58.1 72.7-27.8 44-48.4 96.8-57.7 147.8-.6 3.3-1.3 7.1-1.6 8.5-.8 4.3-4.5 30.8-5.1 36.8-.2 3.1-.7 7.5-.9 9.7-2.3 21.5-2.3 90.1-.1 102 .2 1.1.7 5.7 1 10.2.4 4.5.8 9 1 10 .2 1 .7 4.3 1 7.4.4 3.1.9 6.7 1.1 8 .3 1.3.7 4.2 1 6.4.6 4.6 1.2 8.3 2.6 14.3.5 2.3 1.2 5.9 1.5 8 1.8 11.8 14.6 56.8 18.4 64.7.5 1.1 2.3 5.4 3.9 9.5 6.9 17.9 17.8 39.4 28.4 56.5 5.8 9.2 16.8 25.8 17.6 26.5.3.3 2.6 3.2 5 6.5 12.7 17.1 33.9 39.6 52.2 55.1 30.3 25.8 66.3 47.2 106.1 63 17.9 7.2 53.5 18.1 68.3 21 1.1.2 4.3.8 7 1.4 2.8.6 6.1 1.2 7.5 1.5 5.1 1 19.7 3.4 24 3.9 2.5.3 5.4.8 6.5 1 1.1.2 5.6.7 10 1.1 4.4.4 9.4.9 11 1.1 21.7 2.3 76.3 2.2 93-.1 1.7-.3 5.3-.7 8-.9 5.6-.5 13.7-1.5 17.5-2.2 1.4-.2 5.2-.9 8.5-1.4 55.9-9.3 116.4-32.4 161.4-61.7 7.2-4.8 12.1-8.3 26-18.8 2.6-1.9 6.6-5.5 14.6-12.7l4-3.7.1-201V371l-160.5.2-160.6.3v181h124.1l-.1 58.5v58.4l-5.5 3.1c-15.4 8.5-33.6 12-62.5 11.9-35.1 0-63.4-4.5-91.5-14.6-36.1-12.9-65.7-36.3-86.2-68.3-13.3-20.7-25.5-50.7-30.4-75-3.5-17.4-5-26.2-6-36-.3-3.3-.7-7.1-1-8.5-.8-5-1.8-30.9-1.7-45 .1-26.2 1.4-41.2 5.9-67.5 2.4-14.4 9.3-38.1 15.1-52 4.4-10.6 13.4-27.8 18.6-35.5 5.9-8.9 9-13.3 9.7-14 .3-.3 2.3-2.8 4.5-5.5 11-14 30.3-30.9 46.5-40.9 21.7-13.4 49.1-22.8 74.2-25.4 9.4-.9 43.4-.9 51.8 0 26 3 47 9.7 70 22.3 12.2 6.7 37 23.9 43.1 29.7.8.8 3.5 3 6 5l4.5 3.7 22.5-27.5c12.3-15.2 22.9-28.1 23.4-28.7.6-.7 4-4.8 7.5-9.2 3.6-4.4 6.7-8.2 7-8.5.5-.5 8.7-10.5 10.7-13 .6-.8 3.6-4.4 6.5-8 3-3.6 10.6-12.8 16.8-20.5 6.2-7.7 11.6-14.2 11.9-14.5.4-.3 2.2-2.5 4.1-5 1.9-2.5 4.1-5.1 4.9-5.9 1.1-1.3.4-2.3-5-7.6-15.7-14.9-33.3-28.9-51.6-40.9-31.8-20.8-62.2-35.7-94.3-46.2-4.1-1.3-8.9-2.9-10.7-3.4-1.8-.6-4-1.3-5-1.5-1-.2-5.8-1.3-10.8-2.5-4.9-1.2-9.9-2.4-11-2.6-5.1-1.1-19.4-3.5-23-4-2.2-.3-4.9-.7-6-.9-1.1-.2-5.1-.7-9-1-3.8-.3-11-1-16-1.4-8.4-.7-53.9-1.3-54.7-.6z"/></svg>